<!-- Generator: Adobe Illustrator 21.0.0, SVG Export Plug-In  -->
<svg version="1.1"
	 xmlns="http://www.w3.org/2000/svg" xmlns:xlink="http://www.w3.org/1999/xlink" xmlns:a="http://ns.adobe.com/AdobeSVGViewerExtensions/3.0/"
	 x="0px" y="0px" width="132px" height="132px" viewBox="0 0 132 132" style="enable-background:new 0 0 132 132;"
	 xml:space="preserve">
<style type="text/css">
	.st0{fill:#FFFFFF;}
</style>
<defs>
</defs>
<g>
	<path class="st0" d="M66,132c-36.4,0-66-29.6-66-66S29.6,0,66,0s66,29.6,66,66S102.4,132,66,132z M66,8C34,8,8,34,8,66s26,58,58,58
		s58-26,58-58S98,8,66,8z"/>
</g>
<path class="st0" d="M85.3,29.4v11.8h-7c-2.6,0-4.3,0.5-5.2,1.6c-0.9,1.1-1.3,2.7-1.3,4.8V56h13.1l-1.7,13.2H71.8v33.9H58.1V69.3
	H46.7V56h11.4v-9.7c0-5.5,1.5-9.8,4.6-12.9c3.1-3.1,7.2-4.6,12.4-4.6C79.5,28.9,82.9,29,85.3,29.4z"/>
</svg>
