<!-- Generator: Adobe Illustrator 21.0.0, SVG Export Plug-In  -->
<svg version="1.1"
	 xmlns="http://www.w3.org/2000/svg" xmlns:xlink="http://www.w3.org/1999/xlink" xmlns:a="http://ns.adobe.com/AdobeSVGViewerExtensions/3.0/"
	 x="0px" y="0px" width="132px" height="132px" viewBox="0 0 132 132" style="enable-background:new 0 0 132 132;"
	 xml:space="preserve">
<style type="text/css">
	.st0{fill:#FFFFFF;}
</style>
<defs>
</defs>
<g>
	<path class="st0" d="M66,132c-36.4,0-66-29.6-66-66S29.6,0,66,0s66,29.6,66,66S102.4,132,66,132z M66,8C34,8,8,34,8,66s26,58,58,58
		s58-26,58-58S98,8,66,8z"/>
</g>
<path class="st0" d="M101.2,44.2c-2,2.9-4.4,5.4-7.2,7.5c0,0.4,0,1,0,1.9c0,3.9-0.6,7.7-1.7,11.6c-1.1,3.9-2.8,7.6-5.2,11.1
	c-2.3,3.5-5.1,6.7-8.2,9.4c-3.2,2.7-7,4.9-11.5,6.5c-4.5,1.6-9.3,2.4-14.4,2.4c-8.1,0-15.4-2.2-22.1-6.5c1,0.1,2.2,0.2,3.5,0.2
	c6.7,0,12.7-2.1,17.9-6.2c-3.1-0.1-5.9-1-8.4-2.9s-4.2-4.2-5.1-7.1c1,0.1,1.9,0.2,2.7,0.2c1.3,0,2.5-0.2,3.8-0.5
	c-3.3-0.7-6.1-2.3-8.3-5c-2.2-2.6-3.3-5.7-3.3-9.2v-0.2c2,1.1,4.2,1.7,6.5,1.8c-2-1.3-3.5-3-4.7-5.1c-1.2-2.1-1.7-4.4-1.7-6.9
	c0-2.6,0.7-5,2-7.3c3.6,4.4,8,8,13.1,10.6c5.2,2.7,10.7,4.1,16.6,4.4c-0.2-1.1-0.4-2.2-0.4-3.3c0-4,1.4-7.4,4.2-10.2
	c2.8-2.8,6.2-4.2,10.2-4.2c4.2,0,7.7,1.5,10.5,4.6c3.2-0.6,6.3-1.8,9.2-3.5c-1.1,3.4-3.2,6.1-6.3,7.9
	C95.6,46.1,98.4,45.4,101.2,44.2z"/>
</svg>
