<!-- Generator: Adobe Illustrator 21.0.0, SVG Export Plug-In  -->
<svg version="1.1"
	 xmlns="http://www.w3.org/2000/svg" xmlns:xlink="http://www.w3.org/1999/xlink" xmlns:a="http://ns.adobe.com/AdobeSVGViewerExtensions/3.0/"
	 x="0px" y="0px" width="440px" height="50px" viewBox="0 0 440 50" style="enable-background:new 0 0 440 50;"
	 xml:space="preserve">
<style type="text/css">
	.st0{fill:#FFFFFF;}
	.st1{fill:#4D382E;}
	.st2{fill:#E6DEDA;}
</style>
<defs>
</defs>
<g>
	<path class="st0" d="M8,49c-3.9,0-7-3.1-7-7V8c0-3.9,3.1-7,7-7h189.2c3.9,0,7,3.1,7,7v34c0,3.9-3.1,7-7,7H8z"/>
	<g>
		<path class="st1" d="M197.2,2c3.3,0,6,2.7,6,6v34c0,3.3-2.7,6-6,6H8c-3.3,0-6-2.7-6-6V8c0-3.3,2.7-6,6-6H197.2 M197.2,0H8
			C3.6,0,0,3.6,0,8v34c0,4.4,3.6,8,8,8h189.2c4.4,0,8-3.6,8-8V8C205.2,3.6,201.6,0,197.2,0L197.2,0z"/>
	</g>
</g>
<g>
	<path class="st2" d="M242.8,49c-3.9,0-7-3.1-7-7V8c0-3.9,3.1-7,7-7H432c3.9,0,7,3.1,7,7v34c0,3.9-3.1,7-7,7H242.8z"/>
	<g>
		<path class="st1" d="M432,2c3.3,0,6,2.7,6,6v34c0,3.3-2.7,6-6,6H242.8c-3.3,0-6-2.7-6-6V8c0-3.3,2.7-6,6-6H432 M432,0H242.8
			c-4.4,0-8,3.6-8,8v34c0,4.4,3.6,8,8,8H432c4.4,0,8-3.6,8-8V8C440,3.6,436.4,0,432,0L432,0z"/>
	</g>
</g>
<path class="st1" d="M221.4,23.6h3.7v2.6h-3.7v4.2h-2.8v-4.2h-3.7v-2.6h3.7v-4h2.8V23.6z"/>
<g>
	<path class="st1" d="M54.4,22.3c1.4,0.6,2.5,1.1,3.7,1.9l-0.9,1.6c-1.1-0.8-2.4-1.5-3.8-2.1L54.4,22.3z M53.8,28.6
		c1.1,0,2.6-0.3,4-0.9c1.7-0.7,2.9-1.6,4-3.1c0.8-1,1.2-1.8,1.6-3.1c0.6,0.6,0.8,0.8,1.5,1.2c-0.6,1.6-1.2,2.5-2.1,3.5
		c-1.8,2-4.2,3.3-7.6,4c-0.5,0.1-0.7,0.1-1,0.2L53.8,28.6z M55.5,18.9c1.4,0.6,2.5,1.1,3.7,1.8l-0.9,1.5c-1.3-0.9-2.5-1.5-3.7-1.9
		L55.5,18.9z"/>
	<path class="st1" d="M78.4,20.6c-0.1,0.2-0.2,0.3-0.2,0.6c-0.7,2.7-1.5,4.4-2.9,5.9c-1.4,1.5-2.9,2.6-5.2,3.6
		c-0.4-0.8-0.6-1-1.2-1.7c1.2-0.4,2-0.8,3.1-1.4c2.2-1.4,3.6-3.4,4.2-6.1h-6.7c-0.9,0-1.3,0-1.8,0.1v-1.8c0.5,0.1,0.8,0.1,1.8,0.1
		h6.4c0.8,0,1.1,0,1.5-0.1L78.4,20.6z"/>
	<path class="st1" d="M83.6,24.3c-0.6,0-0.9,0-1.3,0.1v-1.5c0.4,0.1,0.6,0.1,1.3,0.1h4.1v-0.9c0-0.5,0-0.8-0.1-1.1h1.6
		c0,0.3,0,0.4,0,1l0,0.9h1.2c0.6,0,0.9,0,1.3-0.1v1.5c-0.4,0-0.7-0.1-1.3-0.1h-1.2l0.1,5.3c0,0.6,0,0.9,0.1,1.2h-1.7
		c0-0.3,0.1-0.6,0.1-1.1l0-3.5c0-0.2,0-0.7,0-0.9c-0.2,0.4-0.3,0.5-0.5,0.8c-1,1.3-2.5,2.6-4.5,3.7c-0.3-0.6-0.5-0.8-1-1.3
		c1.1-0.5,2.1-1.1,3-1.9c0.9-0.7,1.6-1.6,2-2.3H83.6z"/>
	<path class="st1" d="M94.8,28.4c1.2-0.1,2.9-0.5,4.1-1c1.8-0.8,3.1-1.8,4.2-3.4c0.6-0.9,1-1.7,1.4-2.8c0.5,0.7,0.8,0.9,1.5,1.4
		c-1.2,2.6-2.5,4.2-4.4,5.5c-1.4,1-3.2,1.6-5.3,2.1c-0.6,0.1-0.6,0.1-0.9,0.2L94.8,28.4z M96,19.7c1.7,1,2.5,1.7,3.6,2.7l-1.2,1.5
		c-1.1-1.2-2.3-2.1-3.6-2.8L96,19.7z"/>
	<path class="st1" d="M117.2,22.6c0,0.1,0,0.1,0,0.4c-0.2,2.4-0.7,3.9-1.8,5.2c-0.9,1.1-1.9,1.8-3.6,2.6c-0.4-0.7-0.6-1-1.2-1.5
		c1.2-0.4,2-0.9,2.8-1.6c1.3-1.1,1.9-2.6,2-5h-3.4c-0.8,1.3-1.3,1.9-2.3,2.8c-0.5-0.6-0.8-0.7-1.4-1.1c1.3-1.1,2.2-2.3,3-3.9
		c0.4-0.9,0.6-1.4,0.7-2l1.8,0.4c-0.1,0.2-0.1,0.2-0.5,1.2c-0.1,0.3-0.3,0.6-0.4,0.9c0.4,0,0.4,0,6.1,0c1,0,1.2,0,1.8-0.1v1.7
		c-0.4,0-0.4,0-0.9,0c-0.2,0-0.5,0-0.9,0H117.2z"/>
	<path class="st1" d="M123.6,23.7c0.6,0.1,0.9,0.1,2.3,0.1h7.5c1.4,0,1.7,0,2.3-0.1v1.9c-0.6-0.1-0.7-0.1-2.3-0.1h-7.4
		c-1.6,0-1.7,0-2.3,0.1V23.7z"/>
	<path class="st1" d="M142.9,20.2c-0.1-0.7-0.2-0.9-0.3-1.3l1.8-0.3c0,0.4,0.1,0.8,0.2,1.3l0.2,1.2l3-0.5c0.7-0.1,1-0.2,1.3-0.3
		l0.3,1.7c-0.4,0-0.4,0-1.3,0.2l-3,0.5l0.4,2.3l3.3-0.5c0.6-0.1,1.1-0.2,1.5-0.3l0.3,1.7c-0.3,0-0.4,0-0.6,0.1c-0.1,0-0.2,0-0.2,0
		c-0.1,0-0.3,0-0.6,0.1l-3.3,0.5l0.5,2.7c0.2,0.9,0.2,1,0.3,1.4l-1.9,0.3c0-0.4-0.1-0.8-0.2-1.5l-0.5-2.8l-3.5,0.5
		c-0.7,0.1-0.9,0.2-1.4,0.3l-0.3-1.7c0.5,0,0.9,0,1.5-0.1l3.4-0.5l-0.4-2.3l-2.6,0.4c-0.6,0.1-1.2,0.2-1.5,0.3l-0.3-1.7
		c0.5,0,1-0.1,1.5-0.2l2.6-0.4L142.9,20.2z"/>
</g>
<g>
	<path class="st1" d="M312.4,30.7c0.1-0.4,0.1-0.8,0.1-1.6v-9c0-0.8,0-1.1-0.1-1.4h1.9c0,0.4-0.1,0.6-0.1,1.5v2.6
		c1.6,0.5,4.1,1.7,6.4,3l-1,1.7c-1-0.7-3-1.8-5-2.7c-0.3-0.2-0.4-0.2-0.5-0.2c0,0.4,0.1,0.6,0.1,1v3.7c0,0.8,0,1.1,0.1,1.6H312.4z
		 M318.1,19.4c0.6,0.7,1,1.2,1.5,2.1l-1,0.5c-0.5-0.9-0.9-1.4-1.5-2.1L318.1,19.4z M320.3,21.1c-0.4-0.8-0.9-1.4-1.4-2l0.9-0.5
		c0.6,0.6,1,1.2,1.5,2L320.3,21.1z"/>
	<path class="st1" d="M327.1,19c-0.1,0.4-0.1,0.5-0.1,1.3v3.9c0,0.7,0,0.9,0.1,1.2h-1.9c0-0.3,0.1-0.8,0.1-1.3v-3.9
		c0-0.7,0-0.9-0.1-1.3L327.1,19z M333.5,19c-0.1,0.3-0.1,0.5-0.1,1.3v1.9c0,2.2-0.1,3.4-0.4,4.2c-0.4,1.4-1.3,2.5-2.8,3.3
		c-0.7,0.4-1.4,0.7-2.7,1.1c-0.3-0.7-0.4-0.9-1-1.7c1.4-0.3,2.2-0.6,3-1.1c1.3-0.9,1.8-1.7,1.9-3.6c0.1-0.6,0.1-1.2,0.1-2.3v-1.8
		c0-0.7,0-1-0.1-1.3H333.5z"/>
	<path class="st1" d="M337.6,28.4c1.2-0.1,2.9-0.5,4.1-1c1.8-0.8,3.1-1.8,4.2-3.4c0.6-0.9,1-1.7,1.4-2.8c0.5,0.7,0.8,0.9,1.5,1.4
		c-1.2,2.6-2.5,4.2-4.4,5.5c-1.4,1-3.2,1.6-5.3,2.1c-0.6,0.1-0.6,0.1-0.9,0.2L337.6,28.4z M338.8,19.7c1.7,1,2.5,1.7,3.6,2.7
		l-1.2,1.5c-1.1-1.2-2.3-2.1-3.6-2.8L338.8,19.7z"/>
	<path class="st1" d="M362.5,21.1c-0.1,0.2-0.2,0.3-0.4,0.8c-0.6,2.1-1.6,4-2.9,5.4c-1.3,1.5-2.8,2.6-5,3.6
		c-0.4-0.7-0.6-0.9-1.2-1.5c1.4-0.6,2.2-1,3.1-1.7c2-1.5,3.3-3.4,4.1-5.9l-4.2,0.1c-0.9,1.4-1.9,2.6-3.3,3.6
		c-0.4-0.6-0.6-0.8-1.4-1.2c1.6-1.1,2.6-2.2,3.6-4.1c0.4-0.8,0.7-1.3,0.7-1.8l1.9,0.4c-0.1,0.1-0.1,0.1-0.2,0.4c0,0.1,0,0.1-0.2,0.4
		c0,0.1,0,0.1-0.2,0.4c-0.1,0.2-0.1,0.2-0.2,0.4c0.2,0,0.4,0,0.7,0l3.1,0c0.5,0,0.7,0,1-0.1L362.5,21.1z"/>
</g>
</svg>
