<!-- Generator: Adobe Illustrator 21.0.0, SVG Export Plug-In  -->
<svg version="1.1"
	 xmlns="http://www.w3.org/2000/svg" xmlns:xlink="http://www.w3.org/1999/xlink" xmlns:a="http://ns.adobe.com/AdobeSVGViewerExtensions/3.0/"
	 x="0px" y="0px" width="238px" height="60px" viewBox="0 0 238 60" style="enable-background:new 0 0 238 60;"
	 xml:space="preserve">
<style type="text/css">
	.st0{fill:#FFFFFF;}
</style>
<defs>
</defs>
<g>
	<g>
		<path class="st0" d="M10.6,3.8L8.3,4.1l4.4,9.2h0.1l4.4-9.2l-2.3-0.3V0.4h10.6v3.4l-2.4,0.4l-7.6,14.4v5.9l3,0.6v3.4H6.9v-3.4
			l3-0.6v-6.2L2.4,4.2L0,3.8V0.4h10.6V3.8z"/>
		<path class="st0" d="M57,14.6c0,4.1-1.2,7.5-3.5,10.2c-2.4,2.7-5.4,4-9.2,4c-3.8,0-6.9-1.3-9.2-4c-2.3-2.7-3.5-6.1-3.5-10.2v-0.4
			c0-4.1,1.2-7.5,3.5-10.2c2.3-2.7,5.4-4,9.2-4c3.8,0,6.9,1.3,9.2,4c2.4,2.7,3.5,6.1,3.5,10.2V14.6z M51.4,14.2
			c0-2.9-0.6-5.3-1.8-7.1c-1.2-1.8-3-2.7-5.4-2.7c-2.4,0-4.1,0.9-5.3,2.7c-1.2,1.8-1.7,4.2-1.7,7.1v0.5c0,3,0.6,5.3,1.8,7.1
			c1.2,1.8,2.9,2.7,5.3,2.7c2.4,0,4.2-0.9,5.4-2.7c1.2-1.8,1.8-4.2,1.8-7.1V14.2z"/>
		<path class="st0" d="M86.5,25.3c-0.9,0.9-2.2,1.7-4,2.4c-1.7,0.7-4,1.1-6.6,1.1c-3.8,0-6.9-1.3-9.3-3.8c-2.4-2.5-3.6-5.8-3.6-9.9
			v-1c0-4.2,1.2-7.6,3.5-10.3C68.9,1.3,71.9,0,75.7,0c2.2,0,4.2,0.4,6,1.1c1.8,0.7,3.3,1.6,4.5,2.8v5.6h-4.2l-0.8-3.8
			c-0.5-0.4-1.2-0.8-2-1.1c-0.8-0.3-1.8-0.4-2.9-0.4c-2.5,0-4.4,0.9-5.7,2.7c-1.4,1.8-2,4.2-2,7.1v1c0,2.9,0.7,5.1,2,6.8
			c1.3,1.7,3.3,2.6,5.8,2.6c1.1,0,2-0.1,2.7-0.3s1.3-0.4,1.6-0.7v-4.8l-4-0.3v-4h9.7V25.3z"/>
		<path class="st0" d="M92.9,25.1l2-0.3l8.5-24.4h5.8l8.5,24.4l2,0.3v3.4h-9.6v-3.4l1.9-0.3l-1.2-3.9h-9.1l-1.2,3.9l1.9,0.3v3.4
			h-9.6V25.1z M103.1,16.7h6.4l-3.2-9.9h-0.1L103.1,16.7z"/>
		<path class="st0" d="M148.6,9.9h-4.2l-0.6-3.7c-0.6-0.6-1.3-1-2.1-1.3c-0.8-0.3-1.8-0.5-3-0.5c-2.4,0-4.3,0.9-5.6,2.7
			c-1.3,1.8-2,4.1-2,6.9v1c0,2.9,0.7,5.2,2,7c1.3,1.8,3.2,2.7,5.6,2.7c1.1,0,2.1-0.2,3-0.5c0.9-0.3,1.6-0.8,2.1-1.3l0.6-3.7h4.2v5.5
			c-1.1,1.3-2.6,2.4-4.3,3.1c-1.8,0.8-3.7,1.2-5.9,1.2c-3.8,0-6.9-1.3-9.3-3.9c-2.4-2.6-3.6-6-3.6-10V14c0-4.1,1.2-7.4,3.6-10
			c2.4-2.6,5.5-3.9,9.3-3.9c2.2,0,4.1,0.4,5.9,1.2c1.7,0.8,3.2,1.8,4.3,3.1V9.9z"/>
		<path class="st0" d="M154.8,25.1l2-0.3l8.5-24.4h5.8l8.5,24.4l2,0.3v3.4h-9.6v-3.4l1.9-0.3l-1.2-3.9h-9.1l-1.2,3.9l1.9,0.3v3.4
			h-9.6V25.1z M165,16.7h6.4l-3.2-9.9h-0.1L165,16.7z"/>
		<path class="st0" d="M187.4,25.1l3-0.6V4.4l-3-0.6V0.4h22.4v7.7h-4.3l-0.3-3.4h-9.2v7.7h9.8v4.3h-9.8v7.7l3,0.6v3.4h-11.6V25.1z"
			/>
		<path class="st0" d="M233.9,16.1h-9.5v8h9.1l0.3-3.4h4.3v7.7h-22.2v-3.4l3-0.6V4.4l-3-0.6V0.4h3H238v7.7h-4.3l-0.3-3.4h-9v7.1h9.5
			V16.1z"/>
	</g>
	<g>
		<path class="st0" d="M43.8,56.1l1.1-0.2v-8.6l-1.1-0.2v-0.9h2.5v4.3c0.3-0.4,0.6-0.6,0.9-0.8c0.4-0.2,0.8-0.3,1.2-0.3
			c0.8,0,1.4,0.2,1.9,0.7c0.4,0.5,0.7,1.2,0.7,2.2V56l1.1,0.2V57h-3.6v-0.9l1.1-0.2v-3.6c0-0.6-0.1-1.1-0.4-1.4
			c-0.3-0.3-0.7-0.4-1.2-0.4c-0.4,0-0.7,0.1-1,0.3c-0.3,0.2-0.6,0.4-0.8,0.7V56l1.1,0.2V57h-3.6V56.1z"/>
		<path class="st0" d="M62.1,57c0-0.2-0.1-0.4-0.1-0.5c0-0.2,0-0.3,0-0.5c-0.3,0.3-0.6,0.6-1,0.8c-0.4,0.2-0.8,0.3-1.3,0.3
			c-0.8,0-1.4-0.2-1.8-0.6c-0.4-0.4-0.6-0.9-0.6-1.6c0-0.7,0.3-1.2,0.9-1.6c0.6-0.4,1.3-0.6,2.3-0.6h1.4v-0.9c0-0.4-0.1-0.8-0.4-1
			s-0.7-0.4-1.1-0.4c-0.3,0-0.6,0-0.9,0.1c-0.3,0.1-0.5,0.2-0.6,0.4l-0.1,0.8h-1v-1.4c0.3-0.3,0.7-0.5,1.2-0.6
			c0.5-0.2,1-0.2,1.6-0.2c0.8,0,1.5,0.2,2,0.6c0.5,0.4,0.8,1,0.8,1.8v3.6c0,0.1,0,0.2,0,0.3c0,0.1,0,0.2,0,0.3l0.5,0.1V57H62.1z
			 M59.9,56c0.4,0,0.9-0.1,1.2-0.3c0.4-0.2,0.6-0.5,0.8-0.8v-1.2h-1.4c-0.6,0-1,0.1-1.3,0.4c-0.3,0.3-0.5,0.6-0.5,0.9
			c0,0.3,0.1,0.6,0.3,0.7C59.2,55.9,59.5,56,59.9,56z"/>
		<path class="st0" d="M71.5,57.6c0,0.8-0.2,1.3-0.6,1.8C70.5,59.8,70,60,69.3,60c-0.1,0-0.3,0-0.4,0c-0.1,0-0.2-0.1-0.4-0.1
			l0.1-1.1c0.1,0,0.2,0,0.3,0.1c0.1,0,0.2,0,0.3,0c0.3,0,0.5-0.1,0.7-0.3c0.2-0.2,0.3-0.5,0.3-1v-7L69,50.5v-0.9h2.5V57.6z
			 M71.4,47.7h-1.4v-1.3h1.4V47.7z"/>
		<path class="st0" d="M77.3,56.1l1.1-0.2v-5.3l-1.1-0.2v-0.9h2.5V56l1.1,0.2V57h-3.6V56.1z M79.8,47.7h-1.4v-1.4h1.4V47.7z"/>
		<path class="st0" d="M85.9,56.1L87,56v-5.3l-1.1-0.2v-0.9h2.3l0.1,1c0.2-0.4,0.5-0.6,0.9-0.8c0.4-0.2,0.8-0.3,1.3-0.3
			s0.9,0.1,1.3,0.3c0.4,0.2,0.6,0.6,0.8,1c0.2-0.4,0.5-0.8,0.9-1c0.4-0.2,0.8-0.4,1.3-0.4c0.8,0,1.4,0.3,1.8,0.8
			c0.4,0.5,0.7,1.3,0.7,2.3V56l1.1,0.2V57h-3.6v-0.9l1.1-0.2v-3.4c0-0.7-0.1-1.2-0.4-1.6c-0.3-0.3-0.6-0.5-1.1-0.5
			c-0.5,0-0.8,0.2-1.1,0.5c-0.3,0.3-0.5,0.7-0.5,1.2V56l1.1,0.2V57h-3.6v-0.9l1.1-0.2v-3.4c0-0.7-0.1-1.2-0.4-1.5s-0.6-0.5-1.1-0.5
			c-0.4,0-0.7,0.1-1,0.3c-0.3,0.2-0.5,0.4-0.6,0.7V56l1.1,0.2V57h-3.6V56.1z"/>
		<path class="st0" d="M107,57.2c-1,0-1.9-0.3-2.5-1c-0.6-0.7-0.9-1.6-0.9-2.7v-0.3c0-1.1,0.3-1.9,0.9-2.6c0.6-0.7,1.4-1.1,2.2-1.1
			c1,0,1.8,0.3,2.3,0.9c0.5,0.6,0.8,1.4,0.8,2.4v0.8H105l0,0c0,0.7,0.2,1.3,0.5,1.8c0.3,0.5,0.8,0.7,1.5,0.7c0.5,0,0.9-0.1,1.2-0.2
			c0.3-0.1,0.6-0.3,0.9-0.5l0.5,0.9c-0.3,0.3-0.6,0.5-1.1,0.6C108.1,57.1,107.6,57.2,107,57.2z M106.8,50.5c-0.5,0-0.8,0.2-1.2,0.6
			c-0.3,0.4-0.5,0.9-0.6,1.4l0,0h3.4v-0.2c0-0.5-0.1-1-0.4-1.3C107.8,50.7,107.4,50.5,106.8,50.5z"/>
		<path class="st0" d="M115.1,56.1l1.1-0.2v-5.3l-1.1-0.2v-0.9h2.3l0.1,1c0.2-0.4,0.5-0.6,0.9-0.8c0.4-0.2,0.8-0.3,1.3-0.3
			s0.9,0.1,1.3,0.3c0.4,0.2,0.6,0.6,0.8,1c0.2-0.4,0.5-0.8,0.9-1c0.4-0.2,0.8-0.4,1.3-0.4c0.8,0,1.4,0.3,1.8,0.8
			c0.4,0.5,0.7,1.3,0.7,2.3V56l1.1,0.2V57h-3.6v-0.9l1.1-0.2v-3.4c0-0.7-0.1-1.2-0.4-1.6c-0.3-0.3-0.6-0.5-1.1-0.5
			c-0.5,0-0.8,0.2-1.1,0.5c-0.3,0.3-0.5,0.7-0.5,1.2V56l1.1,0.2V57h-3.6v-0.9l1.1-0.2v-3.4c0-0.7-0.1-1.2-0.4-1.5s-0.6-0.5-1.1-0.5
			c-0.4,0-0.7,0.1-1,0.3c-0.3,0.2-0.5,0.4-0.6,0.7V56l1.1,0.2V57h-3.6V56.1z"/>
		<path class="st0" d="M137.7,57c0-0.2-0.1-0.4-0.1-0.5c0-0.2,0-0.3,0-0.5c-0.3,0.3-0.6,0.6-1,0.8c-0.4,0.2-0.8,0.3-1.3,0.3
			c-0.8,0-1.4-0.2-1.8-0.6c-0.4-0.4-0.6-0.9-0.6-1.6c0-0.7,0.3-1.2,0.9-1.6c0.6-0.4,1.3-0.6,2.3-0.6h1.4v-0.9c0-0.4-0.1-0.8-0.4-1
			s-0.7-0.4-1.1-0.4c-0.3,0-0.6,0-0.9,0.1c-0.3,0.1-0.5,0.2-0.6,0.4l-0.1,0.8h-1v-1.4c0.3-0.3,0.7-0.5,1.2-0.6
			c0.5-0.2,1-0.2,1.6-0.2c0.8,0,1.5,0.2,2,0.6c0.5,0.4,0.8,1,0.8,1.8v3.6c0,0.1,0,0.2,0,0.3c0,0.1,0,0.2,0,0.3l0.5,0.1V57H137.7z
			 M135.5,56c0.4,0,0.9-0.1,1.2-0.3c0.4-0.2,0.6-0.5,0.8-0.8v-1.2h-1.4c-0.6,0-1,0.1-1.3,0.4c-0.3,0.3-0.5,0.6-0.5,0.9
			c0,0.3,0.1,0.6,0.3,0.7C134.8,55.9,135.1,56,135.5,56z"/>
		<path class="st0" d="M150.5,51.9h-1l-0.2-0.9c-0.2-0.2-0.4-0.3-0.6-0.4s-0.5-0.1-0.8-0.1c-0.5,0-0.8,0.1-1.1,0.3
			c-0.2,0.2-0.3,0.5-0.3,0.8c0,0.3,0.1,0.5,0.3,0.7c0.2,0.2,0.6,0.3,1.3,0.5c0.9,0.2,1.6,0.5,2.1,0.8c0.5,0.3,0.7,0.8,0.7,1.4
			c0,0.7-0.3,1.2-0.8,1.6c-0.5,0.4-1.2,0.6-2.1,0.6c-0.6,0-1.1-0.1-1.5-0.2c-0.4-0.1-0.8-0.3-1.2-0.6l0-1.7h1l0.3,1
			c0.2,0.1,0.4,0.2,0.6,0.3c0.3,0.1,0.5,0.1,0.8,0.1c0.5,0,0.9-0.1,1.1-0.3c0.3-0.2,0.4-0.4,0.4-0.8c0-0.3-0.1-0.5-0.3-0.7
			c-0.2-0.2-0.7-0.4-1.3-0.5c-0.9-0.2-1.6-0.5-2-0.8c-0.5-0.3-0.7-0.8-0.7-1.4c0-0.6,0.3-1.1,0.8-1.5c0.5-0.4,1.2-0.6,2-0.6
			c0.6,0,1.1,0.1,1.5,0.2c0.4,0.1,0.8,0.3,1.1,0.6L150.5,51.9z"/>
		<path class="st0" d="M156,56.1l1.1-0.2v-8.6l-1.1-0.2v-0.9h2.5v4.3c0.3-0.4,0.6-0.6,0.9-0.8c0.4-0.2,0.8-0.3,1.2-0.3
			c0.8,0,1.4,0.2,1.9,0.7c0.4,0.5,0.7,1.2,0.7,2.2V56l1.1,0.2V57h-3.6v-0.9l1.1-0.2v-3.6c0-0.6-0.1-1.1-0.4-1.4
			c-0.3-0.3-0.7-0.4-1.2-0.4c-0.4,0-0.7,0.1-1,0.3c-0.3,0.2-0.6,0.4-0.8,0.7V56l1.1,0.2V57H156V56.1z"/>
		<path class="st0" d="M169.4,56.1l1.1-0.2v-5.3l-1.1-0.2v-0.9h2.5V56l1.1,0.2V57h-3.6V56.1z M171.9,47.7h-1.4v-1.4h1.4V47.7z"/>
		<path class="st0" d="M180.6,47.8v1.8h1.4v1h-1.4v4.5c0,0.3,0.1,0.6,0.2,0.7c0.1,0.1,0.3,0.2,0.6,0.2c0.1,0,0.3,0,0.4,0
			c0.1,0,0.3,0,0.4-0.1l0.2,0.9c-0.1,0.1-0.3,0.1-0.6,0.2c-0.2,0.1-0.5,0.1-0.7,0.1c-0.5,0-1-0.2-1.3-0.5c-0.3-0.3-0.5-0.8-0.5-1.6
			v-4.5h-1.2v-1h1.2v-1.8H180.6z"/>
		<path class="st0" d="M192.4,57c0-0.2-0.1-0.4-0.1-0.5c0-0.2,0-0.3,0-0.5c-0.3,0.3-0.6,0.6-1,0.8c-0.4,0.2-0.8,0.3-1.3,0.3
			c-0.8,0-1.4-0.2-1.8-0.6c-0.4-0.4-0.6-0.9-0.6-1.6c0-0.7,0.3-1.2,0.9-1.6c0.6-0.4,1.3-0.6,2.3-0.6h1.4v-0.9c0-0.4-0.1-0.8-0.4-1
			c-0.3-0.3-0.7-0.4-1.1-0.4c-0.3,0-0.6,0-0.9,0.1c-0.3,0.1-0.5,0.2-0.6,0.4l-0.1,0.8h-1v-1.4c0.3-0.3,0.7-0.5,1.2-0.6
			c0.5-0.2,1-0.2,1.6-0.2c0.8,0,1.5,0.2,2,0.6s0.8,1,0.8,1.8v3.6c0,0.1,0,0.2,0,0.3c0,0.1,0,0.2,0,0.3l0.5,0.1V57H192.4z M190.3,56
			c0.4,0,0.9-0.1,1.2-0.3c0.4-0.2,0.6-0.5,0.8-0.8v-1.2h-1.4c-0.6,0-1,0.1-1.3,0.4c-0.3,0.3-0.5,0.6-0.5,0.9c0,0.3,0.1,0.6,0.3,0.7
			C189.6,55.9,189.9,56,190.3,56z"/>
	</g>
	<g>
		<rect y="52.7" class="st0" width="34.9" height="0.9"/>
	</g>
	<g>
		<rect x="203.1" y="52.7" class="st0" width="34.9" height="0.9"/>
	</g>
</g>
</svg>
