<!-- Generator: Adobe Illustrator 21.0.0, SVG Export Plug-In  -->
<svg version="1.1"
	 xmlns="http://www.w3.org/2000/svg" xmlns:xlink="http://www.w3.org/1999/xlink" xmlns:a="http://ns.adobe.com/AdobeSVGViewerExtensions/3.0/"
	 x="0px" y="0px" width="440px" height="50px" viewBox="0 0 440 50" style="enable-background:new 0 0 440 50;"
	 xml:space="preserve">
<style type="text/css">
	.st0{fill:#FFFFFF;}
	.st1{fill:#4D382E;}
	.st2{fill:#E6DEDA;}
</style>
<defs>
</defs>
<g>
	<path class="st0" d="M8,49c-3.9,0-7-3.1-7-7V8c0-3.9,3.1-7,7-7h189.2c3.9,0,7,3.1,7,7v34c0,3.9-3.1,7-7,7H8z"/>
	<g>
		<path class="st1" d="M197.2,2c3.3,0,6,2.7,6,6v34c0,3.3-2.7,6-6,6H8c-3.3,0-6-2.7-6-6V8c0-3.3,2.7-6,6-6H197.2 M197.2,0H8
			C3.6,0,0,3.6,0,8v34c0,4.4,3.6,8,8,8h189.2c4.4,0,8-3.6,8-8V8C205.2,3.6,201.6,0,197.2,0L197.2,0z"/>
	</g>
</g>
<g>
	<path class="st2" d="M242.8,49c-3.9,0-7-3.1-7-7V8c0-3.9,3.1-7,7-7H432c3.9,0,7,3.1,7,7v34c0,3.9-3.1,7-7,7H242.8z"/>
	<g>
		<path class="st1" d="M432,2c3.3,0,6,2.7,6,6v34c0,3.3-2.7,6-6,6H242.8c-3.3,0-6-2.7-6-6V8c0-3.3,2.7-6,6-6H432 M432,0H242.8
			c-4.4,0-8,3.6-8,8v34c0,4.4,3.6,8,8,8H432c4.4,0,8-3.6,8-8V8C440,3.6,436.4,0,432,0L432,0z"/>
	</g>
</g>
<g>
	<path class="st1" d="M221.4,23.6h3.7v2.6h-3.7v4.2h-2.8v-4.2h-3.7v-2.6h3.7v-4h2.8V23.6z"/>
</g>
<g>
	<path class="st1" d="M58.4,19.9c0,0.2-0.1,0.2-0.1,0.3l0,0.2l-0.1,0.4l0,0.3c-0.6,4-1.7,6.8-3.6,8.9c-0.7-0.6-0.9-0.8-1.6-1.2
		c0.8-0.8,1.4-1.7,2-3c0.6-1.3,1.1-3,1.3-4.8c0.1-0.6,0.1-1.1,0.1-1.4c0,0,0-0.1,0-0.2L58.4,19.9z M62.4,19.5c0,0.6,0.3,2,0.6,3.2
		c0.7,2.6,1.7,4.5,3.1,6.1c-0.7,0.4-1,0.7-1.5,1.3c-1.9-2.2-3.2-5.4-3.7-9.2c-0.1-0.6-0.1-0.8-0.2-1L62.4,19.5z M66.4,20.4
		c0,0.9-0.7,1.6-1.6,1.6c-0.9,0-1.6-0.7-1.6-1.6c0-0.9,0.7-1.6,1.6-1.6C65.6,18.8,66.4,19.5,66.4,20.4z M63.8,20.4
		c0,0.5,0.4,0.9,0.9,0.9c0.5,0,0.9-0.4,0.9-0.9c0-0.5-0.4-0.9-0.9-0.9C64.2,19.5,63.8,19.9,63.8,20.4z"/>
	<path class="st1" d="M68.6,27.2c0.5,0.1,0.8,0.1,1.8,0.1h8c1,0,1.3,0,1.8-0.1v1.9C79.8,29,79.4,29,78.5,29h-8.1
		c-0.9,0-1.3,0-1.8,0.1V27.2z M70.1,20.4c0.5,0.1,0.8,0.1,1.7,0.1h5.5c0.8,0,1.1,0,1.7-0.1v1.8c-0.5-0.1-0.8-0.1-1.6-0.1h-5.5
		c-0.8,0-1.2,0-1.6,0.1V20.4z"/>
	<path class="st1" d="M83,23.7c0.6,0.1,0.9,0.1,2.3,0.1h7.5c1.4,0,1.7,0,2.3-0.1v1.9c-0.6-0.1-0.7-0.1-2.3-0.1h-7.4
		c-1.6,0-1.7,0-2.3,0.1V23.7z"/>
	<path class="st1" d="M97.8,27.2c0.5,0.1,0.8,0.1,1.8,0.1h8c1,0,1.3,0,1.8-0.1v1.9c-0.5-0.1-0.9-0.1-1.8-0.1h-8.1
		c-0.9,0-1.3,0-1.8,0.1V27.2z M99.2,20.4c0.5,0.1,0.8,0.1,1.7,0.1h5.5c0.8,0,1.1,0,1.7-0.1v1.8c-0.5-0.1-0.8-0.1-1.6-0.1h-5.5
		c-0.8,0-1.2,0-1.6,0.1V20.4z"/>
	<path class="st1" d="M124.2,22c-0.2,0.2-0.2,0.3-0.4,0.7c-0.8,1.7-1.8,2.9-3.4,4.1c-0.5-0.6-0.8-0.8-1.4-1.1c1-0.5,1.7-1.2,2.3-2
		c0.2-0.3,0.3-0.4,0.5-0.8c-0.2,0-0.3,0.1-0.5,0.1c-1.4,0.2-2.9,0.4-4.3,0.6v3.2c0,1,0,1,0.1,1.2c0.1,0.5,0.5,0.7,2,0.7
		c1.6,0,3.1-0.2,4.3-0.5l0.1,1.9c-0.4,0-0.5,0-0.9,0.1c-1.5,0.2-2.5,0.2-3.5,0.2c-1.1,0-2-0.1-2.5-0.2c-0.6-0.2-1.1-0.7-1.2-1.3
		c-0.1-0.4-0.1-0.6-0.1-1.8v-3.2l-1.3,0.2c-1.1,0.1-1.1,0.1-1.6,0.3l-0.2-1.7c0.2,0,0.3,0,0.3,0c0.3,0,0.9,0,1.2-0.1l1.5-0.2v-1.9
		c0-0.7,0-0.9-0.1-1.3h1.9c-0.1,0.4-0.1,0.7-0.1,1.3V22l5.1-0.6c0.7-0.1,0.8-0.1,1.1-0.2L124.2,22z"/>
	<path class="st1" d="M128.8,22c0.6,1.1,0.9,1.8,1.4,3.3l-1.6,0.5c-0.4-1.4-0.6-2.2-1.3-3.4L128.8,22z M136.8,22.1
		c-0.1,0.2-0.1,0.3-0.2,0.7c-0.4,1.9-1,3.4-1.9,4.7c-1,1.4-2.2,2.3-4.3,3.4c-0.4-0.6-0.5-0.8-1.1-1.4c1-0.4,1.6-0.7,2.4-1.3
		c1.6-1.2,2.6-2.6,3.2-4.9c0.2-0.7,0.3-1.2,0.3-1.6L136.8,22.1z M131.7,21.4c0.7,1.4,1,2,1.4,3.2l-1.6,0.5c-0.3-1.1-0.7-2.1-1.3-3.3
		L131.7,21.4z"/>
	<path class="st1" d="M141.7,30.7c0.1-0.4,0.1-0.8,0.1-1.6v-9c0-0.7,0-1.1-0.1-1.4h1.9c-0.1,0.4-0.1,0.6-0.1,1.5v2.6
		c1.9,0.7,4.1,1.7,6.4,3l-1,1.7c-1.2-0.8-2.6-1.6-5-2.7c-0.3-0.2-0.4-0.2-0.5-0.2c0,0.4,0.1,0.6,0.1,1v3.7c0,0.7,0,1.1,0.1,1.6
		H141.7z"/>
</g>
<g>
	<path class="st1" d="M312.4,30.7c0.1-0.4,0.1-0.8,0.1-1.6v-9c0-0.8,0-1.1-0.1-1.4h1.9c0,0.4-0.1,0.6-0.1,1.5v2.6
		c1.6,0.5,4.1,1.7,6.4,3l-1,1.7c-1-0.7-3-1.8-5-2.7c-0.3-0.2-0.4-0.2-0.5-0.2c0,0.4,0.1,0.6,0.1,1v3.7c0,0.8,0,1.1,0.1,1.6H312.4z
		 M318.1,19.4c0.6,0.7,1,1.2,1.5,2.1l-1,0.5c-0.5-0.9-0.9-1.4-1.5-2.1L318.1,19.4z M320.3,21.1c-0.4-0.8-0.9-1.4-1.4-2l0.9-0.5
		c0.6,0.6,1,1.2,1.5,2L320.3,21.1z"/>
	<path class="st1" d="M327.1,19c-0.1,0.4-0.1,0.5-0.1,1.3v3.9c0,0.7,0,0.9,0.1,1.2h-1.9c0-0.3,0.1-0.8,0.1-1.3v-3.9
		c0-0.7,0-0.9-0.1-1.3L327.1,19z M333.5,19c-0.1,0.4-0.1,0.5-0.1,1.3v1.9c0,2.2-0.1,3.4-0.4,4.2c-0.4,1.4-1.3,2.5-2.8,3.3
		c-0.7,0.4-1.4,0.7-2.7,1.1c-0.3-0.7-0.4-0.9-1-1.7c1.4-0.3,2.2-0.6,3-1.1c1.3-0.9,1.8-1.7,1.9-3.6c0.1-0.6,0.1-1.2,0.1-2.3v-1.8
		c0-0.7,0-1-0.1-1.3H333.5z"/>
	<path class="st1" d="M337.6,28.4c1.2-0.1,2.9-0.5,4.1-1c1.8-0.8,3.1-1.8,4.2-3.4c0.6-0.9,1-1.7,1.4-2.8c0.5,0.7,0.8,0.9,1.5,1.4
		c-1.2,2.6-2.5,4.2-4.4,5.5c-1.4,1-3.2,1.6-5.3,2.1c-0.6,0.1-0.6,0.1-0.9,0.2L337.6,28.4z M338.8,19.7c1.7,1,2.5,1.7,3.6,2.7
		l-1.2,1.5c-1.1-1.2-2.3-2.1-3.6-2.8L338.8,19.7z"/>
	<path class="st1" d="M362.5,21.1c-0.1,0.2-0.2,0.3-0.4,0.8c-0.6,2.1-1.6,4-2.9,5.4c-1.3,1.5-2.8,2.6-5,3.6
		c-0.4-0.7-0.6-0.9-1.2-1.5c1.4-0.6,2.2-1,3.1-1.7c2-1.5,3.3-3.4,4.1-5.9l-4.2,0.1c-0.9,1.4-1.9,2.6-3.3,3.6
		c-0.4-0.6-0.6-0.8-1.4-1.2c1.6-1.1,2.6-2.2,3.6-4.1c0.4-0.8,0.7-1.3,0.7-1.8l1.9,0.4c-0.1,0.1-0.1,0.1-0.2,0.4c0,0.1,0,0.1-0.2,0.4
		c0,0.1,0,0.1-0.2,0.4c-0.1,0.2-0.1,0.2-0.2,0.4c0.2,0,0.4,0,0.7,0l3.1,0c0.5,0,0.7,0,1-0.1L362.5,21.1z"/>
</g>
</svg>
